# xmcd CD database file
#
# Track frame offsets:
#	150
#	28608
#	57887
#	81256
#	113777
#	138398
#
# Disc length: 2438 seconds
#
# Revision: 0
# Processed by: cddbd v1.5.2PL0 Copyright (c) Steve Scherf et al.
# Submitted via: CDex 2.12
#
DISCID=49098406
DTITLE=David Helfand and Justin Lader - After The Rain
DYEAR=2012
DGENRE=New Age
TTITLE0=After the Rain
TTITLE1=Callings of the Angels
TTITLE2=Waiting by the Shores of Tomorrow
TTITLE3=Shimmering Falls
TTITLE4=The Winter Ghost
TTITLE5=Dance of the White Horse
EXTD=YEAR: 2012
EXTT0=
EXTT1=
EXTT2=
EXTT3=
EXTT4=
EXTT5=
PLAYORDER=
